<svg xmlns="http://www.w3.org/2000/svg" xmlns:xlink="http://www.w3.org/1999/xlink" width="64" zoomAndPan="magnify" viewBox="0 0 48 48" height="64" preserveAspectRatio="xMidYMid meet" version="1.0"><defs><clipPath id="c0e90325d5"><path d="M 3.398438 0 L 44 0 L 44 47 L 3.398438 47 Z M 3.398438 0 " clip-rule="nonzero"/></clipPath><clipPath id="0db37f125e"><path d="M 7 7 L 34 7 L 34 47.019531 L 7 47.019531 Z M 7 7 " clip-rule="nonzero"/></clipPath><clipPath id="e925ed000c"><path d="M 32 4 L 44.539062 4 L 44.539062 46 L 32 46 Z M 32 4 " clip-rule="nonzero"/></clipPath></defs><g clip-path="url(#c0e90325d5)"><path fill="#ff4463" d="M 10.640625 20.535156 C 12.039062 19.292969 13.085938 17.667969 14.550781 16.492188 C 15.789062 15.492188 17.375 14.839844 18.960938 14.960938 C 20.546875 15.082031 22.113281 16.089844 22.632812 17.59375 C 23.164062 15.679688 25.328125 14.578125 27.316406 14.664062 C 29.300781 14.746094 31.128906 15.734375 32.808594 16.800781 C 34.488281 17.867188 36.148438 19.042969 38.058594 19.582031 C 39.96875 20.117188 42.253906 19.863281 43.589844 18.398438 C 41.6875 23.824219 39.28125 29.480469 34.542969 32.722656 C 31.6875 34.675781 27.183594 36.039062 23.734375 36.085938 C 20.285156 36.128906 18.90625 35.839844 15.640625 34.730469 C 12.917969 33.804688 9.167969 31.648438 7.21875 29.527344 C 5.859375 28.054688 3.398438 23.8125 3.703125 21.320312 C 4.328125 21.742188 6.15625 22.226562 7.292969 22.132812 C 8.535156 22.019531 9.726562 21.347656 10.640625 20.535156 Z M 26.878906 3 C 27.121094 2.28125 27.25 1.410156 26.785156 0.8125 C 26.160156 0.0117188 24.796875 0.234375 24.125 0.992188 C 23.453125 1.746094 23.289062 2.820312 23.203125 3.828125 C 22.886719 2.925781 22.53125 1.980469 21.832031 1.316406 C 21.132812 0.65625 19.984375 0.375 19.203125 0.933594 C 18.308594 1.578125 18.34375 3 18.941406 3.921875 C 19.539062 4.855469 20.742188 6.070312 21.496094 6.882812 C 22.457031 7.921875 22.710938 9.460938 22.710938 9.460938 C 22.710938 9.460938 23.714844 8.105469 24.460938 7.171875 C 25.449219 5.929688 26.363281 4.519531 26.878906 3 Z M 21.421875 38.4375 C 21.609375 41.003906 21.796875 43.582031 21.980469 46.152344 C 20.675781 46.066406 19.34375 46.355469 18.195312 46.972656 C 18.167969 44.777344 18.082031 42.574219 18.101562 40.378906 C 18.113281 39.269531 17.925781 39.035156 18.820312 38.550781 C 19.054688 38.410156 21.414062 38.25 21.421875 38.4375 Z M 21.421875 38.4375 " fill-opacity="1" fill-rule="nonzero"/></g><path fill="#000000" d="M 40.351562 20.777344 C 38.300781 21.972656 36.101562 22.90625 33.816406 23.542969 C 33.253906 23.703125 32.695312 23.832031 32.136719 23.953125 C 29.65625 23.691406 26.738281 22.160156 23.222656 22.460938 C 19.996094 22.730469 18.046875 24.90625 14.15625 25.054688 C 12.265625 25.066406 10.371094 24.671875 8.636719 23.898438 C 8.050781 23.636719 7.480469 23.328125 6.941406 22.984375 C 6.660156 22.804688 6.398438 23.253906 6.679688 23.429688 C 8.636719 24.671875 10.914062 25.390625 13.226562 25.542969 C 13.738281 25.570312 14.25 25.578125 14.753906 25.550781 C 17.179688 26.570312 19.210938 27.820312 24.144531 27.445312 C 27.558594 27.183594 30.71875 25.726562 33.75 24.09375 C 35.492188 23.625 37.191406 22.984375 38.804688 22.1875 C 39.417969 21.890625 40.015625 21.5625 40.605469 21.226562 C 40.902344 21.058594 40.640625 20.609375 40.351562 20.777344 Z M 40.351562 20.777344 " fill-opacity="1" fill-rule="nonzero"/><g clip-path="url(#0db37f125e)"><path fill="#f7f0e7" d="M 7.9375 11.878906 C 7.5 11.535156 7.0625 11.058594 7.109375 10.496094 C 7.164062 9.75 8.085938 9.332031 8.816406 9.515625 C 9.542969 9.703125 10.074219 10.300781 10.539062 10.878906 C 10.363281 10.1875 10.203125 9.46875 10.363281 8.777344 C 10.519531 8.089844 11.109375 7.445312 11.816406 7.460938 C 12.628906 7.5 13.1875 8.386719 13.199219 9.199219 C 13.214844 10.011719 12.964844 11.253906 12.832031 12.058594 C 12.664062 13.085938 13.140625 14.140625 13.140625 14.140625 C 13.140625 14.140625 11.976562 13.71875 11.136719 13.457031 C 10.007812 13.101562 8.878906 12.609375 7.9375 11.878906 Z M 33.042969 43.730469 C 32.84375 44.601562 32.175781 45.28125 31.417969 45.75 C 29.554688 46.917969 27.242188 46.972656 25.039062 47 C 24.601562 47.011719 24.125 47 23.773438 46.730469 C 23.269531 46.347656 23.25 45.601562 23.351562 44.972656 C 23.453125 44.347656 23.640625 43.683594 23.390625 43.097656 C 25.097656 43.347656 26.859375 43.21875 28.5 42.703125 C 28.84375 42.601562 29.226562 42.425781 29.3125 42.070312 C 29.386719 41.722656 29.105469 41.386719 28.769531 41.277344 C 28.433594 41.164062 28.070312 41.21875 27.726562 41.277344 C 26.785156 41.433594 23.976562 42.433594 23.789062 40.882812 C 23.660156 39.808594 25.507812 38.839844 28.445312 38.34375 C 29.75 38.128906 29.46875 38.585938 30.636719 39.257812 C 29.238281 39.519531 26.363281 39.203125 26.503906 40.097656 C 26.652344 40.996094 29.414062 39.792969 30.8125 40.3125 C 32.210938 40.835938 33.367188 42.285156 33.042969 43.730469 Z M 33.042969 43.730469 " fill-opacity="1" fill-rule="nonzero"/></g><g clip-path="url(#e925ed000c)"><path fill="#f7f0e7" d="M 33.488281 9.84375 C 32.835938 8.394531 32.257812 6.726562 32.882812 5.257812 C 33.179688 4.566406 33.9375 3.933594 34.636719 4.222656 C 35 4.378906 35.234375 4.746094 35.410156 5.101562 C 36.027344 6.304688 36.371094 7.648438 36.417969 9.003906 C 36.648438 7.984375 37.226562 6.96875 38.1875 6.546875 C 39.148438 6.128906 40.484375 6.558594 40.753906 7.574219 C 41.003906 8.535156 40.285156 9.453125 39.578125 10.152344 C 38.414062 11.308594 35.054688 14.765625 35.054688 14.765625 C 35.054688 14.765625 34.738281 13.421875 34.496094 12.410156 C 34.273438 11.515625 33.863281 10.675781 33.488281 9.84375 Z M 44.195312 40.230469 C 43.847656 41.59375 42.859375 42.703125 41.742188 43.554688 C 40.007812 44.851562 37.890625 45.628906 35.726562 45.738281 C 35.09375 45.777344 34.375 45.722656 33.9375 45.253906 C 32.996094 44.253906 34.105469 42.292969 33.105469 41.339844 C 35.148438 41.59375 37.265625 41.125 39.007812 40.035156 C 39.484375 39.734375 39.988281 39.269531 39.894531 38.71875 C 39.820312 38.242188 39.296875 37.933594 38.824219 37.921875 C 38.339844 37.914062 37.882812 38.121094 37.441406 38.316406 C 36.707031 38.644531 35.914062 38.960938 35.101562 38.875 C 34.300781 38.792969 33.488281 38.15625 33.488281 37.34375 C 33.488281 36.558594 34.199219 35.980469 34.851562 35.550781 C 35.820312 34.925781 37.089844 34.019531 38.226562 33.769531 C 39.691406 33.433594 39.550781 34.085938 40.109375 35.496094 C 38.253906 35.058594 35.054688 36.988281 35.167969 37.539062 C 35.28125 38.101562 37.75 36.914062 39.007812 36.476562 C 40.269531 36.039062 41.742188 35.804688 42.890625 36.503906 C 44.089844 37.25 44.539062 38.875 44.195312 40.230469 Z M 44.195312 40.230469 " fill-opacity="1" fill-rule="nonzero"/></g><path fill="#f7f0e7" d="M 11.425781 42.339844 C 13.503906 43.21875 15.351562 44.648438 16.722656 46.441406 C 15.480469 46.570312 14.230469 46.691406 12.992188 46.824219 C 12.636719 46.859375 12.285156 46.898438 11.929688 46.839844 C 11.089844 46.71875 10.382812 46.113281 9.933594 45.394531 C 9.484375 44.675781 9.261719 43.84375 9.039062 43.023438 C 8.90625 44.078125 8.769531 45.125 8.636719 46.179688 C 7.761719 45.730469 6.753906 45.554688 5.773438 45.675781 C 6.585938 42.144531 7.40625 38.625 8.226562 35.105469 C 8.90625 35.441406 9.664062 35.625 10.417969 35.65625 C 10.035156 35.636719 9.402344 39.53125 9.457031 39.921875 C 10.425781 40.109375 11.339844 38.859375 12.003906 38.269531 C 12.433594 37.894531 12.898438 37.503906 13.457031 37.449219 C 14.78125 37.324219 15.828125 39.109375 17.09375 38.746094 C 15.210938 39.949219 13.320312 41.144531 11.425781 42.339844 Z M 19.816406 34.199219 C 20.136719 34.382812 20.519531 34.414062 20.882812 34.441406 C 21.738281 34.496094 22.605469 34.542969 23.464844 34.523438 C 27.351562 34.429688 34.414062 31.460938 33.957031 30.078125 C 33.5 28.699219 31.585938 30.789062 30.382812 31.089844 C 27.996094 31.6875 26.746094 32.125 23.121094 32.488281 C 22.121094 32.589844 21.253906 32.769531 20.3125 32.882812 C 19.425781 32.992188 19.136719 33.515625 19.816406 34.199219 Z M 35.261719 28.304688 C 34.945312 28.191406 34.5625 28.378906 34.441406 28.699219 C 34.320312 29.015625 34.496094 29.40625 34.804688 29.527344 C 35.28125 29.714844 35.765625 29.324219 36.117188 28.960938 C 36.296875 28.78125 36.492188 28.546875 36.445312 28.304688 C 36.398438 28.035156 36.082031 27.875 35.8125 27.914062 C 35.539062 27.941406 35.308594 28.109375 35.082031 28.277344 M 29.246094 17.695312 C 27.96875 16.726562 26.1875 16.074219 25.011719 17.539062 C 24.871094 17.707031 24.75 17.921875 24.789062 18.136719 C 24.855469 18.566406 25.421875 18.6875 25.84375 18.574219 C 26.253906 18.453125 26.644531 18.191406 27.074219 18.210938 C 27.417969 18.230469 27.726562 18.425781 28.003906 18.621094 C 28.285156 18.816406 28.574219 19.042969 28.910156 19.105469 C 29.246094 19.171875 29.65625 19.03125 29.769531 18.714844 C 29.898438 18.332031 29.574219 17.941406 29.246094 17.695312 Z M 18.550781 16.632812 C 18.242188 16.632812 17.765625 16.800781 17.488281 16.839844 C 17.132812 16.882812 16.777344 17.117188 16.714844 17.472656 C 16.621094 17.941406 17.058594 18.339844 17.496094 18.527344 C 18 18.742188 18.617188 18.800781 19.101562 18.539062 C 19.585938 18.277344 19.882812 17.632812 19.640625 17.136719 C 19.398438 16.660156 18.921875 16.632812 18.550781 16.632812 Z M 18.550781 16.632812 " fill-opacity="1" fill-rule="nonzero"/></svg>