<svg xmlns="http://www.w3.org/2000/svg" xmlns:xlink="http://www.w3.org/1999/xlink" width="64" zoomAndPan="magnify" viewBox="0 0 48 48" height="64" preserveAspectRatio="xMidYMid meet" version="1.0"><defs><clipPath id="b0a97f1238"><path d="M 4.074219 7 L 43.75 7 L 43.75 47.019531 L 4.074219 47.019531 Z M 4.074219 7 " clip-rule="nonzero"/></clipPath></defs><path fill="#a5c7b6" d="M 26.410156 10.308594 L 21.414062 10.308594 L 21.414062 2.144531 L 26.410156 2.144531 L 26.410156 10.308594 " fill-opacity="1" fill-rule="nonzero"/><path fill="#a5c7b6" d="M 35.578125 11.535156 L 33.160156 9.785156 L 34.582031 7.796875 L 37.003906 9.546875 L 35.578125 11.535156 " fill-opacity="1" fill-rule="nonzero"/><path fill="#fbd20a" d="M 28.046875 4.292969 L 19.773438 4.292969 C 18.597656 4.292969 17.636719 3.328125 17.636719 2.144531 C 17.636719 0.964844 18.597656 -0.00390625 19.773438 -0.00390625 L 28.046875 -0.00390625 C 29.222656 -0.00390625 30.183594 0.964844 30.183594 2.144531 C 30.183594 3.328125 29.222656 4.292969 28.046875 4.292969 " fill-opacity="1" fill-rule="nonzero"/><path fill="#fbd20a" d="M 37.046875 9.882812 L 34.503906 7.976562 C 33.816406 7.457031 33.675781 6.472656 34.1875 5.78125 C 34.703125 5.089844 35.6875 4.945312 36.375 5.460938 L 38.917969 7.371094 C 39.605469 7.886719 39.746094 8.875 39.234375 9.566406 C 38.71875 10.257812 37.734375 10.398438 37.046875 9.882812 " fill-opacity="1" fill-rule="nonzero"/><g clip-path="url(#b0a97f1238)"><path fill="#fbd20a" d="M 43.710938 27.136719 C 43.710938 38.117188 34.847656 47.023438 23.910156 47.023438 C 12.976562 47.023438 4.109375 38.117188 4.109375 27.136719 C 4.109375 16.152344 12.976562 7.25 23.910156 7.25 C 34.847656 7.25 43.710938 16.152344 43.710938 27.136719 " fill-opacity="1" fill-rule="nonzero"/></g><path fill="#fdfdfd" d="M 39.667969 27.0625 C 39.710938 35.800781 32.6875 42.921875 23.984375 42.960938 C 15.28125 43.003906 8.191406 35.949219 8.152344 27.210938 C 8.113281 18.46875 15.132812 11.351562 23.835938 11.308594 C 32.539062 11.269531 39.628906 18.320312 39.667969 27.0625 " fill-opacity="1" fill-rule="nonzero"/><path fill="#a5c7b6" d="M 23.910156 13.492188 C 16.421875 13.492188 10.328125 19.613281 10.328125 27.136719 C 10.328125 34.660156 16.421875 40.777344 23.910156 40.777344 C 31.398438 40.777344 37.492188 34.660156 37.492188 27.136719 C 37.492188 19.613281 31.398438 13.492188 23.910156 13.492188 Z M 23.910156 41.53125 C 16.007812 41.53125 9.578125 35.074219 9.578125 27.136719 C 9.578125 19.199219 16.007812 12.742188 23.910156 12.742188 C 31.8125 12.742188 38.242188 19.199219 38.242188 27.136719 C 38.242188 35.074219 31.8125 41.53125 23.910156 41.53125 " fill-opacity="1" fill-rule="nonzero"/><path fill="#f9a40d" d="M 25.566406 27.171875 C 25.566406 28.089844 24.824219 28.835938 23.910156 28.835938 C 22.996094 28.835938 22.253906 28.089844 22.253906 27.171875 C 22.253906 26.253906 22.996094 25.511719 23.910156 25.511719 C 24.824219 25.511719 25.566406 26.253906 25.566406 27.171875 " fill-opacity="1" fill-rule="nonzero"/><path fill="#f9a40d" d="M 23.789062 17.117188 L 23.222656 17.117188 L 23.222656 14.707031 L 23.789062 14.707031 L 23.789062 17.117188 " fill-opacity="1" fill-rule="nonzero"/><path fill="#f9a40d" d="M 23.222656 37.230469 L 23.789062 37.230469 L 23.789062 39.640625 L 23.222656 39.640625 L 23.222656 37.230469 " fill-opacity="1" fill-rule="nonzero"/><path fill="#f9a40d" d="M 13.496094 26.886719 L 13.496094 27.457031 L 11.09375 27.457031 L 11.09375 26.886719 L 13.496094 26.886719 " fill-opacity="1" fill-rule="nonzero"/><path fill="#f9a40d" d="M 33.519531 27.457031 L 33.519531 26.886719 L 35.917969 26.886719 L 35.917969 27.457031 L 33.519531 27.457031 " fill-opacity="1" fill-rule="nonzero"/><path fill="#f9a40d" d="M 16.628906 19.859375 L 16.226562 20.261719 L 14.53125 18.558594 L 14.929688 18.15625 L 16.628906 19.859375 " fill-opacity="1" fill-rule="nonzero"/><path fill="#f9a40d" d="M 30.386719 34.484375 L 30.789062 34.082031 L 32.484375 35.785156 L 32.082031 36.1875 L 30.386719 34.484375 " fill-opacity="1" fill-rule="nonzero"/><path fill="#f9a40d" d="M 19.828125 17.816406 L 19.304688 18.042969 L 18.359375 15.824219 L 18.882812 15.601562 L 19.828125 17.816406 " fill-opacity="1" fill-rule="nonzero"/><path fill="#f9a40d" d="M 27.1875 36.527344 L 27.710938 36.304688 L 28.652344 38.519531 L 28.132812 38.746094 L 27.1875 36.527344 " fill-opacity="1" fill-rule="nonzero"/><path fill="#f9a40d" d="M 27.492188 17.941406 L 26.964844 17.730469 L 27.855469 15.492188 L 28.382812 15.707031 L 27.492188 17.941406 " fill-opacity="1" fill-rule="nonzero"/><path fill="#f9a40d" d="M 19.523438 36.402344 L 20.050781 36.613281 L 19.15625 38.851562 L 18.628906 38.640625 L 19.523438 36.402344 " fill-opacity="1" fill-rule="nonzero"/><path fill="#f9a40d" d="M 14.316406 23.171875 L 14.105469 23.699219 L 11.878906 22.804688 L 12.089844 22.273438 L 14.316406 23.171875 " fill-opacity="1" fill-rule="nonzero"/><path fill="#f9a40d" d="M 32.695312 31.175781 L 32.90625 30.644531 L 35.136719 31.542969 L 34.925781 32.070312 L 32.695312 31.175781 " fill-opacity="1" fill-rule="nonzero"/><path fill="#f9a40d" d="M 32.824219 23.476562 L 32.597656 22.953125 L 34.804688 22.003906 L 35.027344 22.527344 L 32.824219 23.476562 " fill-opacity="1" fill-rule="nonzero"/><path fill="#f9a40d" d="M 14.191406 30.871094 L 14.414062 31.394531 L 12.207031 32.34375 L 11.984375 31.816406 L 14.191406 30.871094 " fill-opacity="1" fill-rule="nonzero"/><path fill="#f9a40d" d="M 30.789062 20.261719 L 30.386719 19.859375 L 32.082031 18.15625 L 32.484375 18.558594 L 30.789062 20.261719 " fill-opacity="1" fill-rule="nonzero"/><path fill="#f9a40d" d="M 16.226562 34.082031 L 16.628906 34.484375 L 14.929688 36.1875 L 14.53125 35.785156 L 16.226562 34.082031 " fill-opacity="1" fill-rule="nonzero"/><path fill="#f9a40d" d="M 15.742188 21.75 L 27.082031 28.132812 L 26.25 29.296875 Z M 15.742188 21.75 " fill-opacity="1" fill-rule="nonzero"/></svg>